<?xml version="1.0" encoding="UTF-8"?>
<svg id="Capa_3" data-name="Capa 3" xmlns="http://www.w3.org/2000/svg" viewBox="0 0 778.06 327.2">
  <g id="Capa_1" data-name="Capa 1">
    <g>
      <g>
        <path d="M16.93,264.29v61.18H0v-88.5h15.06l52.25,61.05v-61.05h16.93v88.5h-15.33l-51.98-61.18Z"/>
        <path d="M123.6,321.27c-6.67-3.95-11.89-9.44-15.66-16.46-3.78-7.02-5.67-14.88-5.67-23.59s1.89-16.57,5.67-23.59c3.78-7.02,9-12.53,15.66-16.53,6.66-4,14.13-6,22.39-6s15.73,2,22.39,6c6.67,4,11.88,9.51,15.66,16.53,3.78,7.02,5.66,14.88,5.66,23.59s-1.89,16.57-5.66,23.59c-3.78,7.02-9,12.51-15.66,16.46-6.66,3.95-14.13,5.93-22.39,5.93s-15.73-1.98-22.39-5.93ZM123.33,296.15c2.22,4.44,5.31,7.93,9.26,10.46,3.95,2.53,8.42,3.8,13.4,3.8s9.46-1.27,13.46-3.8c4-2.53,7.13-6.02,9.4-10.46,2.27-4.44,3.4-9.42,3.4-14.93s-1.13-10.62-3.4-15.06c-2.27-4.44-5.4-7.93-9.4-10.46-4-2.53-8.49-3.8-13.46-3.8s-9.44,1.27-13.4,3.8c-3.96,2.53-7.04,6.02-9.26,10.46-2.22,4.44-3.33,9.46-3.33,15.06s1.11,10.49,3.33,14.93Z"/>
        <path d="M241.47,309.48h1.73l28.26-72.51h17.86l-34.52,88.5h-25.19l-34.52-88.5h18.13l28.26,72.51Z"/>
        <path d="M316.03,321.27c-6.67-3.95-11.89-9.44-15.66-16.46-3.78-7.02-5.67-14.88-5.67-23.59s1.89-16.57,5.67-23.59c3.78-7.02,9-12.53,15.66-16.53,6.66-4,14.13-6,22.39-6s15.73,2,22.39,6c6.67,4,11.88,9.51,15.66,16.53,3.78,7.02,5.66,14.88,5.66,23.59s-1.89,16.57-5.66,23.59c-3.78,7.02-9,12.51-15.66,16.46-6.66,3.95-14.13,5.93-22.39,5.93s-15.73-1.98-22.39-5.93ZM315.76,296.15c2.22,4.44,5.31,7.93,9.26,10.46,3.95,2.53,8.42,3.8,13.4,3.8s9.46-1.27,13.46-3.8c4-2.53,7.13-6.02,9.4-10.46,2.27-4.44,3.4-9.42,3.4-14.93s-1.13-10.62-3.4-15.06c-2.27-4.44-5.4-7.93-9.4-10.46-4-2.53-8.49-3.8-13.46-3.8s-9.44,1.27-13.4,3.8c-3.96,2.53-7.04,6.02-9.26,10.46-2.22,4.44-3.33,9.46-3.33,15.06s1.11,10.49,3.33,14.93Z"/>
        <path d="M461.85,264.29v61.18h-16.93v-88.5h15.06l52.25,61.05v-61.05h16.93v88.5h-15.33l-51.98-61.18Z"/>
        <path d="M551.66,236.97h16.93v88.5h-16.93v-88.5Z"/>
        <path d="M591.16,236.97h42.12c8.26,0,15.73,1.89,22.39,5.67,6.67,3.78,11.88,9.04,15.66,15.79,3.78,6.75,5.67,14.35,5.67,22.79s-1.89,15.91-5.67,22.66c-3.78,6.75-9,12.04-15.66,15.86-6.66,3.82-14.13,5.73-22.39,5.73h-42.12v-88.5ZM633.28,309.48c4.98,0,9.44-1.2,13.4-3.6,3.95-2.4,7.04-5.75,9.26-10.06,2.22-4.31,3.33-9.17,3.33-14.6s-1.11-10.28-3.33-14.59c-2.22-4.31-5.31-7.69-9.26-10.13-3.95-2.44-8.42-3.67-13.4-3.67h-25.19v56.65h25.19Z"/>
        <path d="M711.95,321.27c-6.67-3.95-11.89-9.44-15.66-16.46-3.78-7.02-5.67-14.88-5.67-23.59s1.89-16.57,5.67-23.59c3.78-7.02,9-12.53,15.66-16.53,6.66-4,14.13-6,22.39-6s15.73,2,22.39,6c6.67,4,11.88,9.51,15.66,16.53,3.78,7.02,5.66,14.88,5.66,23.59s-1.89,16.57-5.66,23.59c-3.78,7.02-9,12.51-15.66,16.46-6.66,3.95-14.13,5.93-22.39,5.93s-15.73-1.98-22.39-5.93ZM711.68,296.15c2.22,4.44,5.31,7.93,9.26,10.46,3.95,2.53,8.42,3.8,13.4,3.8s9.46-1.27,13.46-3.8c4-2.53,7.13-6.02,9.4-10.46,2.27-4.44,3.4-9.42,3.4-14.93s-1.13-10.62-3.4-15.06c-2.27-4.44-5.4-7.93-9.4-10.46-4-2.53-8.49-3.8-13.46-3.8s-9.44,1.27-13.4,3.8c-3.96,2.53-7.04,6.02-9.26,10.46-2.22,4.44-3.33,9.46-3.33,15.06s1.11,10.49,3.33,14.93Z"/>
      </g>
      <path d="M460.04,142.02h-142.02v-30.62h3.09v27.53h135.84V3.09h-135.84v74.65h27.27v-18.4l41-30.66,40.3,30.67v53.59h-30.7v-32.12h-47.51v29.03h26.93v-14.01h3.09v17.09h-33.1v-32.12h-30.36V0h142.02v142.02ZM402.07,109.86h24.53v-48.98l-37.23-28.33-37.9,28.34v16.85h50.6v32.12Z"/>
    </g>
  </g>
</svg>