<?xml version="1.0" encoding="UTF-8"?>
<svg id="Capa_3" data-name="Capa 3" xmlns="http://www.w3.org/2000/svg" viewBox="0 0 1700.4 207.57">
  <defs>
    <style>
      .cls-1 {
        fill: #ccce99;
      }
    </style>
  </defs>
  <g id="Capa_1" data-name="Capa 1">
    <g>
      <path class="cls-1" d="M0,3.9h26.1l131.98,158.38V3.9h26.39v199.17h-26.39L26.4,44.99v158.08H0V3.9Z"/>
      <path class="cls-1" d="M225.05,103.48c0-18,3.8-34.89,11.4-50.69,7.6-15.8,18.7-28.54,33.29-38.24,14.6-9.7,31.8-14.55,51.59-14.55s36.99,4.8,51.59,14.4c14.6,9.6,25.69,22.3,33.3,38.09,7.6,15.8,11.4,32.8,11.4,50.99s-3.8,35.25-11.4,51.14c-7.6,15.9-18.7,28.7-33.3,38.4-14.6,9.7-31.8,14.55-51.59,14.55s-37-4.9-51.59-14.7c-14.6-9.79-25.7-22.65-33.29-38.54-7.6-15.9-11.4-32.85-11.4-50.84ZM253.85,103.19c0,13.2,2.65,25.75,7.95,37.64,5.3,11.9,13.05,21.5,23.25,28.79,10.2,7.3,22.29,10.95,36.29,10.95s26.14-3.64,36.45-10.95c10.3-7.3,18.15-16.84,23.55-28.64,5.4-11.8,8.1-24.3,8.1-37.5s-2.7-25.74-8.1-37.64c-5.4-11.9-13.3-21.49-23.7-28.79-10.4-7.3-22.5-10.95-36.3-10.95s-26.1,3.65-36.29,10.95c-10.2,7.3-17.95,16.85-23.25,28.64-5.3,11.8-7.95,24.3-7.95,37.5Z"/>
      <path class="cls-1" d="M428.39,2.7h28.2l71.99,167.68L602.37,2.7h28.5l-88.49,200.37h-28.2L428.39,2.7Z"/>
      <path class="cls-1" d="M641.33,103.48c0-18,3.8-34.89,11.4-50.69,7.6-15.8,18.7-28.54,33.29-38.24,14.6-9.7,31.8-14.55,51.59-14.55s36.99,4.8,51.59,14.4c14.6,9.6,25.69,22.3,33.3,38.09,7.6,15.8,11.4,32.8,11.4,50.99s-3.8,35.25-11.4,51.14c-7.6,15.9-18.7,28.7-33.3,38.4-14.6,9.7-31.8,14.55-51.59,14.55s-37-4.9-51.59-14.7c-14.6-9.79-25.7-22.65-33.29-38.54-7.6-15.9-11.4-32.85-11.4-50.84ZM670.13,103.19c0,13.2,2.65,25.75,7.95,37.64,5.3,11.9,13.05,21.5,23.25,28.79,10.2,7.3,22.29,10.95,36.29,10.95s26.14-3.64,36.45-10.95c10.3-7.3,18.15-16.84,23.55-28.64,5.4-11.8,8.1-24.3,8.1-37.5s-2.7-25.74-8.1-37.64c-5.4-11.9-13.3-21.49-23.7-28.79-10.4-7.3-22.5-10.95-36.3-10.95s-26.1,3.65-36.29,10.95c-10.2,7.3-17.95,16.85-23.25,28.64-5.3,11.8-7.95,24.3-7.95,37.5Z"/>
      <path class="cls-1" d="M976.68,3.9h26.1l131.98,158.38V3.9h26.39v199.17h-26.39l-131.68-158.08v158.08h-26.4V3.9Z"/>
      <path class="cls-1" d="M1211.78,3.9h26.4v199.17h-26.4V3.9Z"/>
      <path class="cls-1" d="M1288.99,3.9h92.39c19.2,0,36.09,4.5,50.69,13.5,14.59,9,25.8,21.1,33.6,36.29,7.8,15.2,11.7,31.7,11.7,49.49s-3.9,34.34-11.7,49.64c-7.8,15.3-19,27.5-33.6,36.59-14.6,9.1-31.49,13.65-50.69,13.65h-92.39V3.9ZM1315.38,178.77h65.99c13.8,0,25.8-3.5,36-10.5,10.2-7,18-16.24,23.4-27.75,5.4-11.5,8.1-23.85,8.1-37.04s-2.7-25.2-8.1-36.59c-5.4-11.4-13.2-20.59-23.4-27.59-10.2-7-22.2-10.5-36-10.5h-65.99v149.98Z"/>
      <path class="cls-1" d="M1507.83,103.48c0-18,3.8-34.89,11.4-50.69,7.6-15.8,18.7-28.54,33.29-38.24,14.6-9.7,31.8-14.55,51.59-14.55s36.99,4.8,51.59,14.4c14.6,9.6,25.69,22.3,33.3,38.09,7.6,15.8,11.4,32.8,11.4,50.99s-3.8,35.25-11.4,51.14c-7.6,15.9-18.7,28.7-33.3,38.4-14.6,9.7-31.8,14.55-51.59,14.55s-37-4.9-51.59-14.7c-14.6-9.79-25.7-22.65-33.29-38.54-7.6-15.9-11.4-32.85-11.4-50.84ZM1536.63,103.19c0,13.2,2.65,25.75,7.95,37.64,5.3,11.9,13.05,21.5,23.25,28.79,10.2,7.3,22.29,10.95,36.29,10.95s26.14-3.64,36.45-10.95c10.3-7.3,18.15-16.84,23.55-28.64,5.4-11.8,8.1-24.3,8.1-37.5s-2.7-25.74-8.1-37.64c-5.4-11.9-13.3-21.49-23.7-28.79-10.4-7.3-22.5-10.95-36.3-10.95s-26.1,3.65-36.29,10.95c-10.2,7.3-17.95,16.85-23.25,28.64-5.3,11.8-7.95,24.3-7.95,37.5Z"/>
    </g>
  </g>
</svg>